<?xml version="1.0" encoding="UTF-8"?>
<svg id="Layer_2" data-name="Layer 2" xmlns="http://www.w3.org/2000/svg" viewBox="0 0 146.61 216.07">
  <defs>
    <style>
      .cls-1, .cls-2 {
        stroke-width: 0px;
      }

      .cls-2 {
        fill: #fff;
      }
    </style>
  </defs>
  <g id="Layer_1-2" data-name="Layer 1">
    <g id="Layer_9" data-name="Layer 9">
      <g>
        <polygon class="cls-1" points="3.37 212.7 3.37 3.37 143.24 148.62 57.61 148.62 3.37 212.7"/>
        <path class="cls-2" d="m3.37,216.07c-.39,0-.78-.07-1.16-.21-1.33-.49-2.21-1.75-2.21-3.16V3.37C0,2,.83.76,2.11.24c1.28-.51,2.73-.2,3.69.79l139.87,145.25c.94.97,1.2,2.41.67,3.66s-1.75,2.05-3.1,2.05H59.17L5.94,214.87c-.65.77-1.6,1.19-2.57,1.19ZM6.74,11.73v191.77l48.29-57.06c.64-.76,1.58-1.19,2.57-1.19h77.71L6.74,11.73Z"/>
      </g>
    </g>
  </g>
</svg>