<?xml version="1.0" encoding="UTF-8"?>
<svg id="Layer_2" data-name="Layer 2" xmlns="http://www.w3.org/2000/svg" viewBox="0 0 472.15 337.86">
  <defs>
    <style>
      .cls-1, .cls-2, .cls-3, .cls-4 {
        stroke-width: 0px;
      }

      .cls-2 {
        fill: #fff;
      }

      .cls-3 {
        fill: #006eff;
      }

      .cls-4 {
        fill: #00be64;
      }
    </style>
  </defs>
  <g id="Layer_1-2" data-name="Layer 1">
    <g id="Layer_11" data-name="Layer 11">
      <g>
        
        <g>
          <g>
            <rect class="cls-2" x="225.01" y="3.37" width="22.12" height="22.12"/>
            <rect class="cls-2" x="446.66" y="3.37" width="22.12" height="22.12"/>
            <rect class="cls-2" x="3.37" y="3.37" width="22.12" height="22.12"/>
            <rect class="cls-2" x="225.01" y="312.37" width="22.12" height="22.12"/>
            <rect class="cls-2" x="446.66" y="312.37" width="22.12" height="22.12"/>
            <rect class="cls-2" x="3.37" y="312.37" width="22.12" height="22.12"/>
            <rect class="cls-2" x="446.66" y="157.87" width="22.12" height="22.12"/>
            <rect class="cls-2" x="3.37" y="157.87" width="22.12" height="22.12"/>
          </g>
          <path class="cls-3" d="m468.78,28.86c1.86,0,3.37-1.51,3.37-3.37V3.37c0-1.86-1.51-3.37-3.37-3.37h-22.12c-1.86,0-3.37,1.51-3.37,3.37v7.69h-192.78V3.37c0-1.86-1.51-3.37-3.37-3.37h-22.12c-1.86,0-3.37,1.51-3.37,3.37v7.69H28.86V3.37c0-1.86-1.51-3.37-3.37-3.37H3.37C1.51,0,0,1.51,0,3.37v22.12c0,1.86,1.51,3.37,3.37,3.37h7.69v125.64H3.37c-1.86,0-3.37,1.51-3.37,3.37v22.12c0,1.86,1.51,3.37,3.37,3.37h7.69v125.64H3.37c-1.86,0-3.37,1.51-3.37,3.37v22.12c0,1.86,1.51,3.37,3.37,3.37h22.12c1.86,0,3.37-1.51,3.37-3.37v-7.69h192.78v7.69c0,1.86,1.51,3.37,3.37,3.37h22.12c1.86,0,3.37-1.51,3.37-3.37v-7.69h192.78v7.69c0,1.86,1.51,3.37,3.37,3.37h22.12c1.86,0,3.37-1.51,3.37-3.37v-22.12c0-1.86-1.51-3.37-3.37-3.37h-7.69v-125.64h7.69c1.86,0,3.37-1.51,3.37-3.37v-22.12c0-1.86-1.51-3.37-3.37-3.37h-7.69V28.86h7.69Zm-18.75-22.12h15.38v15.38h-15.38V6.74Zm-221.64,0h15.38v15.38h-15.38V6.74ZM6.74,6.74h15.38v15.38H6.74V6.74Zm0,154.5h15.38v15.38H6.74v-15.38Zm15.38,169.88H6.74v-15.38h15.38v15.38Zm221.64,0h-15.38v-15.38h15.38v15.38Zm221.64,0h-15.38v-15.38h15.38v15.38Zm0-154.5h-15.38v-15.38h15.38v15.38Zm-11.06-22.12h-7.69c-1.86,0-3.37,1.51-3.37,3.37v22.12c0,1.86,1.51,3.37,3.37,3.37h7.69v125.64h-7.69c-1.86,0-3.37,1.51-3.37,3.37v7.69h-192.78v-7.69c0-1.86-1.51-3.37-3.37-3.37h-22.12c-1.86,0-3.37,1.51-3.37,3.37v7.69H28.86v-7.69c0-1.86-1.51-3.37-3.37-3.37h-7.69v-125.64h7.69c1.86,0,3.37-1.51,3.37-3.37v-22.12c0-1.86-1.51-3.37-3.37-3.37h-7.69V28.86h7.69c1.86,0,3.37-1.51,3.37-3.37v-7.69h192.78v7.69c0,1.86,1.51,3.37,3.37,3.37h22.12c1.86,0,3.37-1.51,3.37-3.37v-7.69h192.78v7.69c0,1.86,1.51,3.37,3.37,3.37h7.69v125.64Z"/>
        </g>
      </g>
    </g>
  </g>
</svg>