<?xml version="1.0" encoding="UTF-8"?>
<svg id="Layer_2" data-name="Layer 2" xmlns="http://www.w3.org/2000/svg" viewBox="0 0 472.15 337.86">
  <defs>
    <style>
      .cls-1, .cls-2, .cls-3, .cls-4 {
        stroke-width: 0px;
      }

      .cls-2 {
        fill: #fff;
      }

      .cls-3 {
        fill: #006eff;
      }

      .cls-4 {
        fill: #00be64;
      }
    </style>
  </defs>
  <g id="Layer_1-2" data-name="Layer 1">
    <g id="Layer_11" data-name="Layer 11">
      <g>
        <g>
          <path class="cls-4" d="m451.79,132.38c.6-60.99-49.14-111.49-110.47-112.09-47.93-.47-88.96,29.1-105.25,70.93-16.28-41.83-57.32-71.41-105.25-70.93-61.33.61-111.07,51.1-110.47,112.09.41,41.39,23.61,77.35,57.71,96.09h-.01l153.15,92.17c2.47,1.48,5.56,1.49,8.03.02l154.84-92.19h0c34.1-18.74,57.3-54.7,57.71-96.09Z"/>
          <path class="cls-1" d="m235.24,324.27c-1.84,0-3.68-.49-5.32-1.48l-153.15-92.17s-.04-.02-.06-.03c-35.91-19.8-58.45-57.4-58.86-98.17-.3-30.17,11.33-58.75,32.73-80.47,21.4-21.72,49.89-33.85,80.21-34.15,23.7-.24,46.51,6.7,65.93,20.04,17.3,11.89,30.81,28.03,39.34,46.94,8.53-18.91,22.04-35.05,39.34-46.94,19.1-13.13,41.48-20.05,64.77-20.05.39,0,.77,0,1.16,0,30.33.3,58.81,12.43,80.22,34.15,21.4,21.72,33.03,50.3,32.73,80.47-.4,40.83-23.01,78.48-59.01,98.26l-154.76,92.15c-1.63.97-3.46,1.45-5.28,1.45Zm-155.74-97.85l153,92.08c1.68,1.01,3.78,1.02,5.46.01l154.83-92.19c34.49-18.95,56.11-54.94,56.49-93.97l2.5.02-2.5-.02c.29-28.83-10.83-56.14-31.29-76.91-20.47-20.77-47.71-32.37-76.7-32.66-22.66-.21-44.48,6.4-63.05,19.16-18.14,12.46-31.92,29.81-39.84,50.18-.37.96-1.3,1.59-2.33,1.59s-1.96-.63-2.33-1.59c-7.93-20.36-21.7-37.71-39.84-50.18-18.27-12.55-39.66-19.17-61.94-19.17-.37,0-.74,0-1.11,0-28.99.29-56.23,11.88-76.7,32.66-20.46,20.77-31.58,48.08-31.29,76.91.39,39.03,22,75.02,56.42,93.92.08.04.15.09.23.14Z"/>
        </g>
    
      </g>
    </g>
  </g>
</svg>